<?xml version="1.0" encoding="utf-8"?>
<!-- Generator: Adobe Illustrator 23.0.1, SVG Export Plug-In . SVG Version: 6.00 Build 0)  -->
<svg version="1.1"
	 id="svg357" xmlns:cc="http://creativecommons.org/ns#" xmlns:dc="http://purl.org/dc/elements/1.1/" xmlns:rdf="http://www.w3.org/1999/02/22-rdf-syntax-ns#" xmlns:svg="http://www.w3.org/2000/svg"
	 xmlns="http://www.w3.org/2000/svg" xmlns:xlink="http://www.w3.org/1999/xlink" x="0px" y="0px" viewBox="0 0 541.8 841.9"
	 style="enable-background:new 0 0 541.8 841.9;" xml:space="preserve">
<style type="text/css">
	.st0{fill-rule:evenodd;clip-rule:evenodd;fill:#1B1918;}
	.st1{fill-rule:evenodd;clip-rule:evenodd;fill:#E30016;}
	.st2{fill-rule:evenodd;clip-rule:evenodd;fill:#FFFFFF;}
	.st3{fill-rule:evenodd;clip-rule:evenodd;fill:#009EE0;}
	.st4{fill-rule:evenodd;clip-rule:evenodd;fill:#FFCB00;}
	.st5{fill-rule:evenodd;clip-rule:evenodd;}
</style>
<g id="Layer1000">
	<path id="path2" class="st0" d="M510,57.9l10.6,63.7l7.6,51.5l6.4,55c3.7,37.3,6.4,75,7.1,113.4l-0.2,44.4
		c-3.9,151.1-42.5,291.3-166.5,389.5c-32.9,26.4-67.8,47.1-103.9,66C202.8,806.8,133.1,758,86.2,690C8.1,577.8-6,436.3,2.3,291
		l3.2-43.2l5.1-48.1l6.4-50.1l8.5-54.7l6.4-37c91.3-40.7,193.4-69,302.6-53.1C396.7,13.5,454.4,33.3,510,57.9L510,57.9z"/>
	<path id="path4" class="st0" d="M508.6,59l9.9,57.7l7.4,51.3l5.7,46.4c20,188.1,14.7,387.7-117.7,523.6
		c-43.2,44.4-92.2,75.2-143,101.4c-69.4-35-141.4-86.2-187.6-156.4C4.2,565.6-6,414.3,5.5,264.3l4.8-50.1l6.4-51.3l8-54.7l8.3-49
		C119.4,21.1,212.7-6.5,316.2,4.1C385.2,10.9,448.2,32.3,508.6,59z"/>
	<path id="path6" class="st1" d="M499.7,65.9l15.2,118c-90.4-63.2-204.2-91.1-321-69.9c-60.5,11.3-115.9,35-166.5,69.9l14.9-118
		c90.8-43,198.2-64.6,306.7-46.9C402.2,27.5,452.1,43.8,499.7,65.9z"/>
	<path id="path8" class="st0" d="M488.9,74.4l10.8,85.5c-92-57.9-212.2-80.3-325.8-54c-46.9,10.8-90.8,28.7-131.8,54l11-85.8
		C140.5,33.7,244.2,13.9,347.9,31C397.6,39,444.5,53.9,488.9,74.4z"/>
	<path id="path10" class="st1" d="M520.8,233.3l0.5,0.7l3.9,56.1l1.6,39.3l0.9,43.7c0.2,147.2-33.1,281.2-146,380.6
		c-34.5,30.1-72,53.8-110.8,73.6c-65.5-32.9-132.2-82.6-176.6-147.6C24.4,579.4,10.1,455,15.2,324.6l2.3-44.8l3.2-46
		c75.7-66.9,165.8-100.9,270.4-96.6C378.7,142.7,455.1,175.1,520.8,233.3L520.8,233.3z"/>
	<path id="path12" class="st0" d="M509.6,239.5l4.1,58.4c7.9,212.5-53.1,334.5-242.9,433C89.8,639.4,21.3,499,27.8,308.7l2.8-46.9
		l1.8-22.3c66-57.5,143.3-88.5,232.2-90.8C359,148,440.4,179.5,509.6,239.5z"/>
	<path id="path14" class="st2" d="M345.7,704.5v47.3l6.3-4.4v19.3l-12.7,8.9V769l-25.2,16v6.6l-13.6,11.2v-19.3l4.4-3.1v-53
		L345.7,704.5z M320.6,766.8v-30.5l10.4-6.1V760L320.6,766.8z M217.2,716.4l-24.6-12.8v62.5l15.8,9.5v-35.9l4.8,38.8l13.3,8
		l6.9-32.5v36.6l14.7,8.9v-67.2L226.1,721l-4,33.5L217.2,716.4z M254.4,735.7c0,22.6,0,45.1,0,67.7c3.1,1.9,7.3,3.7,10.4,5.6
		c25.1,1.8,44.7-20.2,23.7-39.8c13.8-10.2,7.2-26.1-1.7-31.9c-4.7,1-9.4,1.9-14.1,2.9C266.7,738.7,260.6,737.2,254.4,735.7
		L254.4,735.7z M268.6,780.7v12.5c3.2,0.1,3.7,0.1,6.9,0.2c7.9-0.3,6.7-12.6,0.2-12.5L268.6,780.7z M268.6,749.6v12.5
		c3.2,0.1,3.7,0.1,6.9,0.2c7.9-0.3,6.7-12.6,0.2-12.5L268.6,749.6z"/>
	<path id="path16" class="st3" d="M101.2,254.1c0.6,0.7,0.9,1.5,1.2,2.4c1.9-0.2,3.7,0.4,4.7,2.1c0.4,0.7,0.6,1.6,0.6,2.4
		c1.9,0.9,4,1.9,5.7,3.6c1.3,1.3,2.2,2.8,2.6,4.4c3.4,0.3,6.8,2.9,7.6,6.3l0.4,1.2c3.7,0.3,7.6,3,8.6,6.7c4.3,1.4,8.8,4.9,10.4,9.3
		c3.5,0.4,6.5,2.2,8.8,5.1c0.7-9.6,0.3-19.8,8.3-26.4c4.1-3.4,9-6.3,14.6-4.4c2.7,0.7,5,3.6,5.4,6.3c-0.2,1.2,0.9,1.8,1.3,2.7
		c1.2,2.8,0.5,6.3-1.4,8.6c-2.3,2.6-5.6,3.8-8.8,2.9c-1-0.2-2-0.8-2.8-1.5l-1.6,28.4l28,28.7l1.9-1.6l-21.8-23.7l42-1.3l-3.5-36
		l37.9,19.6l18.2-31l18.1,30.9h0.2l37.8-19.5l-3.5,35.9l4.6,0.2l37.3,1.2l-21.7,23.7l4.1,3.2l29.5-30.4l-1.6-28.4
		c-1.9,1.5-4.2,2-6.6,1.6c-3-0.5-6.2-3.4-6.8-6.5c-0.5-2.5,0-5,1.6-6.9c0.1-2.8,1.9-5.7,4.6-6.8c6.3-2.9,12.2,1,16.8,5.2
		c6.7,6.6,6.2,16.1,7,25.1c2.2-2.9,5.3-4.6,8.8-5.2c1.6-4.4,6.2-7.8,10.4-9.2c0.9-3.9,4.9-6.4,8.7-6.7c0.4-3.1,3-6.3,6.2-7l1.8-0.4
		c0.8-3.8,4.8-6.5,8.2-7.8c0.1-2.1,1-3.7,3-4.5c0.6-0.2,1.5-0.2,2.2-0.1c0.5-1.9,2.2-3.8,4.1-4.3c4.9-1,9.3,1.4,12.9,4.6
		c3.7,3.7,6.4,8,5.4,13.2c-0.4,1.7-1.8,3.4-3.5,3.9c0.7,0.9,1,2.1,0.8,3.4c-0.3,1.2-0.9,2.3-2,2.9c-1.3,0.9-3.4,0.9-4.7,0.1
		c-0.1-0.1-0.3-0.1-0.4-0.2c-0.2,3.4-1.6,7-5.1,8.3c-0.8,4.1-4.1,8.3-8.3,9.5c-0.3,3.4-2,6.6-5.1,8.3l-2.2,0.9
		c-1,4.4-4.4,9-8.9,10.7c-0.4,2.5-1.7,4.6-3.8,6.4l0.2,0.1c9.4,0.3,19.3,0.1,25.7,7.6c3.5,4.1,6.6,9.3,4.3,15c-0.9,2.8-4,4.8-6.8,5
		c-2.3,2-5.9,2.3-8.6,1c-2.8-1.3-5-4.3-5.1-7.4c-0.1-1.9,0.4-3.7,1.6-5.1l-0.2-0.1l-27.1-0.6L362,382.4c4.5,10,8.6,20.1,12.5,30.3
		l0.4-10.2c1.4-2.3,4-2.9,6.3-3.8c5.9-1.8,11.8-2.9,18-3.9c2.7,0,5.4,2.3,6.4,4.8c1.6,4.6,0.4,10.1-0.8,14.6c-0.6,1.9-2,4.1-4.1,4.8
		c-4.4,1.5-9.4,0.3-13.9,0.1l-1.8,2.6l18,8.9c8.2,10.6,14.6,23.5,10.6,37.6c-2.6,10.1-12.7,18.8-21.9,23.1l-0.2,4.6
		c0.5,0.9-0.2,1.9-0.3,2.7c-1.6,6.3-4.2,13-10.6,16.7c-1.5,0.7-3.1,1.6-4.8,2.1v11.8l30.7,31.6c1.9-2.5,4.8-3.7,7.9-3
		c1.8,0.4,3.8,1.8,4.6,3.7c0.6,1.3,0.7,2.9,0.6,4.4c5.1,7,5.7,18.3,1.4,25.9c-4.6,8.4-13.2,13.2-22.6,13.1
		c-5.3-0.2-10.1-1.9-14.4-4.8c-2.3,0.3-4.3-0.5-5.9-2.1c-1.6-1.7-2.1-3.9-1.7-6.2c0.4-1.9,1.5-3.7,3.2-4.9l-37.5-38.6
		c-4.5-0.1-9-3-10.7-7.3c-0.5-1.5-0.8-2.9-0.8-4.6l-18.5-19h-81.2l-23.4,24.2c-1,2.2-3.1,4.4-5.3,5.4L163.4,587
		c2.5,1.9,3.8,4.7,3.2,7.8c-0.4,2-1.9,4.1-3.9,4.9c-1.2,0.5-2.5,0.7-4,0.5c-6.7,5.3-17.8,6.4-25.6,2.4c-8.6-4.1-14-13-14-22.3
		c0-5.4,1.5-10.3,4.3-14.5c-0.3-2.4,0.4-4.6,2.1-6.2c2-1.9,5.1-2.3,7.6-1.3c1.3,0.4,2.4,1.5,3.4,2.6l5.3-5.6l-0.1-0.1l15.1-15.6
		c0.1,0,0.1,0.1,0.2,0.1l6.4-6.7v-15.6c-5.7-1.5-11.3-6.5-13.3-12.2c-1-2.8-2-5.8-2.6-8.7c0.4-1.7,0-3.5,0-5.1
		c-10.3-4.8-21.1-14.9-22.7-26.4c-2-13.3,3.9-24.4,11.3-34.3l0.5-0.4l17.6-8.6l-1.8-2.6c-4.9,0.1-10.7,1.7-15.1-0.6
		c-3.7-3-3.8-7.6-4.4-11.9c-0.2-3.7-0.1-7.4,2.8-10.1c1.7-1.4,4-2.1,6.2-1.4c7,1.4,14.3,2.3,20.6,5.6c0.8,0.4,1.7,1.3,1.9,2.2
		c0.1,3.2,0,6.5,0.1,9.7h0.2c4.1-11.1,8.6-22.1,13.5-32.9l-38.9-40l-27.3,0.7c1.4,1.9,1.8,4.4,1.3,6.8c-0.7,3-3.7,5.9-6.8,6.4
		c-1.6,0.3-3.4,0.1-4.7-0.4l-2.3-1.4c-2.3-0.3-4.6-1.6-5.9-3.8c-2.4-4.2-1.3-9.8,1.7-13.4c3.6-5.9,9.6-8.9,16-9.7
		c3.9-0.3,7.9-0.5,11.8-0.7c-2.1-1.8-3.4-4-3.9-6.5c-4.4-1.6-7.8-6.2-8.7-10.6c-3.2-0.9-6.5-4-7.1-7.4l-0.3-1.8
		c-4.1-1.3-7.4-5.4-8.3-9.5c-3.6-1.3-4.8-4.9-5.1-8.3c-1.2,0.9-3,1-4.5,0.5c-1.6-0.7-2.5-2.3-2.6-4c0-1,0.3-1.9,0.8-2.7
		c-2.3-0.9-3.7-3.4-3.7-5.9c0.2-6.5,5.6-12.4,11.3-15C94.1,251.8,98.7,251.3,101.2,254.1L101.2,254.1z"/>
	<path id="path18" class="st4" d="M100.3,256l0.4,1.2l-15.8,15.4c-1-0.2-2-0.8-2.6-1.8c-1.5-3.5,0.2-7,2.1-9.7
		c3.4-4.3,7.9-7.8,13.3-7C98.7,254.3,99.8,254.9,100.3,256L100.3,256z"/>
	<path id="path20" class="st4" d="M460.6,264.9c0.7,1.8,1,4.5-0.2,6.1c-0.5,0.9-1.5,1.3-2.3,1.6l-15.9-15.4c0.3-1.2,1-2.3,2.1-2.8
		c3.8-1.4,7.4,0.5,10.4,2.6C457.4,259.1,459.6,261.8,460.6,264.9z"/>
	<path id="path22" class="st4" d="M105.2,259.2c0.6,0.6,0.8,1.7,0.6,2.5l-0.8,1.2l-16.6,16c-0.8,0.4-1.9,0.3-2.6-0.1
		c-0.9-0.5-1.4-1.4-1.3-2.4c0-0.7,0.3-1.6,1-1.9l6.3-6.3l10.3-9.6C103.2,258.1,104.5,258.4,105.2,259.2z"/>
	<path id="path24" class="st4" d="M441.7,259.2l15.2,14.8c0.3,0.6,1.2,0.8,1.4,1.6c0.3,0.7,0.2,1.8-0.2,2.5
		c-0.5,0.7-1.4,1.2-2.3,1.2l-1.3-0.3l-17-16.5c-0.4-0.7-0.5-1.6-0.3-2.3c0.3-0.9,1.2-1.7,2.1-1.9C440.3,258.2,441,258.5,441.7,259.2
		L441.7,259.2z"/>
	<path id="path26" class="st4" d="M114.4,269.9l-10.9,26.2c-3.4-1-6-4.5-6.7-7.9c0.1-0.1,0.5,0.1,0.7,0.2l9.6-24.7l0.5-0.6
		C110.5,264.1,113.8,266.7,114.4,269.9L114.4,269.9z"/>
	<path id="path28" class="st4" d="M445.3,288.5l0.8-0.3c-0.7,3.4-3.4,6.9-6.7,8.1L428.6,270c0.5-3.2,3.8-5.8,6.6-6.9l0.8,0.9
		L445.3,288.5z"/>
	<path id="path30" class="st4" d="M96.2,286.9c-1.6-0.2-3-1.6-3.7-3c-0.4-1.2-0.7-2.3-0.8-3.5l11.9-13L96.2,286.9z"/>
	<path id="path32" class="st4" d="M451.2,280.4c-0.2,2.2-0.7,4.5-2.8,5.9l-1.6,0.6l-0.1-0.2l-7.4-19.3L451.2,280.4z"/>
	<path id="path34" class="st2" d="M178,272.1c-2.6-1.4-6.3-1-8.6,0.6c-2.5,1.9-3.9,4.5-3.8,7.6c0,1.6,0.6,2.9,1.4,4.2l-0.4,0.4
		l-1.6,27.3l-11.2-11.6l-0.3-0.7c0.7-8.1-0.1-16.9,4.3-23.5c2.6-4.1,6.9-6.9,11.2-8.3C172.6,267.6,176.6,268.5,178,272.1z"/>
	<path id="path36" class="st2" d="M382.9,273.7c6.8,6.8,5.6,17,6.6,26.3l-0.9,1.5l-10.7,10.9l-1.5-27.3l-0.5-0.4
		c1.9-2.4,1.9-6.4,0.3-8.9c-1.7-2.7-4.4-4.3-7.4-4.4c-1.4,0-2.6,0.3-3.8,0.8c0.9-2.8,4-4,6.8-4.1C376.2,268,379.5,270.8,382.9,273.7
		L382.9,273.7z"/>
	<path id="path38" class="st4" d="M121.2,274.3c0.6,1.2,1,2.4,1.3,3.8h0.3l-11.4,27.3c-2.8-0.5-5.6-3.2-6.1-6.1l-0.3-2.4
		c0.4-0.1,0.4-0.8,0.7-1.2l10.3-24.9C118.1,271.2,120.2,272.3,121.2,274.3z"/>
	<path id="path40" class="st4" d="M437.8,296.9h0.2c-0.2,3.1-1.6,6.4-4.6,7.9l-1.8,0.7l-11.4-27.3v-0.1h0.2c0.5-2.4,1.4-5,3.8-6.3
		c0.8-0.4,1.8-0.7,2.7-0.9l0.5,1.2L437.8,296.9z"/>
	<path id="path42" class="st2" d="M323.7,283.5l-3.4,34.6l39.9,1.3l-20.3,22.1l24.7,20l-28.2,0.1l-7.2-21.4c-0.7-0.9-2-0.5-3-0.6
		l4.5-7.6l-24-1l0.9-26.2l-23.6,13.1l-14.5-23.9l-14.5,23.9l-23.6-13.1l0.9,26.2l-24,1l4.5,7.5c-0.8,0.2-2.1,0-2.6,0.8l-0.4,1.6
		l-4.4,19.6l-31,0.1l24.7-20L179,319.5l13.1-0.5l26.7-0.7l0.1-0.1l-3.4-34.6l36.5,18.8l17.6-29.8l17.5,29.8L323.7,283.5z"/>
	<path id="path44" class="st2" d="M179.3,275.8c1.2,1.7,1,4.2,0.2,5.9c-1.2,2.5-3.7,4.2-6.4,4.1c-2.1,0-4-1.2-4.9-2.9
		c-0.9-1.7-0.9-4.2,0-5.9c1.2-2.3,3.5-3.8,6-3.9C176.2,273,178.1,274,179.3,275.8z"/>
	<path id="path46" class="st2" d="M375,277.6c0.8,1.9,0.5,4.4-0.6,5.9c-1.4,1.7-3.2,2.4-5.2,2.3c-2.1-0.2-4-1.3-5.2-3.1
		c-1-1.6-1.5-3.9-0.7-5.9c0.8-2.2,3-3.7,5.4-3.7C371.4,273,374.1,274.9,375,277.6z"/>
	<path id="path48" class="st4" d="M130.2,282.1c0.7,0.8,0.3,2.6,1.8,2.7l-12.4,31.1c-3.7-1.5-6.4-5.3-7.2-9l0.3,0.1l11.9-28.6
		C126.9,278.8,129,280,130.2,282.1L130.2,282.1z"/>
	<path id="path50" class="st4" d="M430.2,307l0.2-0.2c-0.8,3.7-3.5,7.6-7.1,9.1l-12.5-31.1c1.5-0.1,1-1.9,1.9-2.7
		c1.2-2.1,3.4-3.2,5.6-3.7L430.2,307z"/>
	<path id="path52" class="st4" d="M141.2,293L129,323.8l-1.4,1.4c-2.9-1.7-6.2-4.4-6.5-8l12.6-31.6
		C136.8,286.9,140.1,289.7,141.2,293z"/>
	<path id="path54" class="st4" d="M421.8,317.2c-0.2,3.6-3.6,6.4-6.5,8l-1.4-1.6l-12.2-30.7c1.2-3.1,4.3-6,7.4-7.3L421.8,317.2z"/>
	<path id="path56" class="st4" d="M152.1,301.3l-19.9,19.3l10.6-26.5C146.8,294.6,150.4,297.9,152.1,301.3z"/>
	<path id="path58" class="st4" d="M390.8,301.3c1.8-3.6,5.3-6.8,9.3-7.2l10.6,26.5L390.8,301.3z"/>
	<path id="path60" class="st2" d="M305.8,307.8l-0.9,24.8l22.7,0.9l-3.6,6H215.2l-3.6-6l22.6-0.9h0.1l-0.8-24.8l22.2,12.4l13.8-22.7
		l13.8,22.7L305.8,307.8z"/>
	<path id="path62" class="st2" d="M141.5,339.3c-4.1-4.3-8.3-8.6-12.5-12.9l24.2-23.5l12.5,12.8L141.5,339.3z"/>
	<path id="path64" class="st2" d="M401.4,339.3l-24.1-23.4l-0.1-0.1l12.5-12.9l24.2,23.5L401.4,339.3z"/>
	<path id="path66" class="st0" d="M142.7,332.7l-0.1,0.1l-6.8-7l16.6-16l6.8,6.9L142.7,332.7z"/>
	<path id="path68" class="st0" d="M407.1,325.8c-2.1,2.3-4.4,4.7-6.7,7l-16.7-16.1l6.8-6.9L407.1,325.8z"/>
	<path id="path70" class="st2" d="M142.7,330.2c-1.5-1.3-2.8-2.8-4.3-4.3l13.9-13.6l4.3,4.4L142.7,330.2z"/>
	<path id="path72" class="st2" d="M400.3,330.2l-13.9-13.5l4.2-4.4l14,13.5L400.3,330.2z"/>
	<path id="path74" class="st2" d="M397,343.8l-24.2-23.5l3.1-3.2l24.2,23.5L397,343.8z"/>
	<path id="path76" class="st2" d="M146,343.8l-3.1-3.2l24.2-23.5l3.1,3.2L146,343.8z"/>
	<path id="path78" class="st2" d="M159.8,358l-12.6-12.9l24.2-23.5l12.6,12.9L159.8,358z"/>
	<path id="path80" class="st2" d="M383.2,358l-24.1-23.4l-0.1-0.1l12.5-12.9l24.2,23.5L383.2,358z"/>
	<path id="path82" class="st2" d="M127.3,327.3l10.4,10.7l-26.4,0.6l-0.4,0.6c-2.3-2-6.2-2.2-8.7-0.7c-2.8,1.5-4.8,4.3-4.8,7.4
		c-0.1,1.4,0.2,2.6,0.7,3.8c-2.9-1.2-4-4.3-4-7.2c0.5-4.7,3.7-8.4,7.2-11.6c6.3-5.1,15.1-4.2,23.3-4.8
		C125.8,325.8,126.5,326.6,127.3,327.3L127.3,327.3z"/>
	<path id="path84" class="st2" d="M444.3,333.5c3.2,3.7,6.1,8.8,3.6,13.6c-0.7,1.2-1.8,2.1-2.9,2.6c1.3-2.7,0.7-6.8-1.4-9.1
		c-2.3-2.4-5.4-3.7-8.7-2.8c-0.9,0.3-1.9,0.7-2.7,1.5l-0.4-0.5l-26.5-0.7l11.1-11.3l0.9-0.6C427,326.7,437.7,325.3,444.3,333.5
		L444.3,333.5z"/>
	<path id="path86" class="st0" d="M160.9,351.6l-6.8-7l16.6-16.1l6.8,7L160.9,351.6z"/>
	<path id="path88" class="st0" d="M388.7,344.6l-6.7,7l-16.5-16l-0.1-0.1l6.7-7l16.6,16L388.7,344.6z"/>
	<path id="path90" class="st2" d="M160.9,349l-4.2-4.4l13.9-13.5l4.2,4.3L160.9,349z"/>
	<path id="path92" class="st2" d="M386.2,344.6l-4.3,4.4c-4.6-4.5-9.3-9-13.9-13.5l4.2-4.4C376.9,335.5,381.5,340.1,386.2,344.6z"/>
	<path id="path94" class="st2" d="M189.2,347.3l-4.6-4.6l-16.7,16l3,3.2l-1.7,1.4h3l2.5,2.5l2.6-2.5h5.3l-9.1,9
		c-4.2-4.4-8.4-8.7-12.6-13l24.2-23.5l7.9,8.2L189.2,347.3z"/>
	<path id="path96" class="st2" d="M369.3,372.4l-9.1-9h5.4l2.5,2.5l6.8-7l-16.6-16.1l-6.2,6.4l-4.1-3.4l9.5-9.8l24.2,23.5
		L369.3,372.4z"/>
	<path id="path98" class="st2" d="M110.7,341.7c1.3,1.6,1.6,4,0.7,5.9c-0.9,2.6-3.7,4.5-6.4,4.5c-2.1,0-4-0.8-5-2.7
		c-1-1.6-1-4-0.3-5.7c1.2-2.4,3.6-4.2,6.2-4.3C107.7,339.4,109.5,340.1,110.7,341.7L110.7,341.7z"/>
	<path id="path100" class="st2" d="M442.5,342.3c1.3,1.7,1.8,4.2,0.9,6.2c-0.6,1.8-2.6,3.2-4.4,3.6c-2.3,0.2-4.4-0.4-6-2.1
		c-1.4-1.5-2.1-3.2-2-5.3c0.2-1.8,1.3-3.6,3-4.5C436.9,338.6,440.6,339.7,442.5,342.3L442.5,342.3z"/>
	<path id="path102" class="st2" d="M239,360.6h-29.4l3.9-17.4H239V360.6z"/>
	<path id="path104" class="st2" d="M267.9,360.6h-25.1v-17.4H268L267.9,360.6z"/>
	<path id="path106" class="st2" d="M297,360.6h-25.3v-17.4H297V360.6z"/>
	<path id="path108" class="st2" d="M332.3,360.6h-31.5v-17.4h25.8L332.3,360.6z"/>
	<path id="path110" class="st2" d="M172.5,360.9l-1.9-2l13.9-13.5l3.1,3.1L172.5,360.9z"/>
	<path id="path112" class="st2" d="M368.9,362.4h-0.2c-4.9-4.1-10.1-7.9-14.6-12.7l4.2-4.4l13.9,13.5L368.9,362.4z"/>
	<path id="path114" class="st2" d="M179.2,378l-4.2-4.2l10.7-10.5h0.5L179.2,378z"/>
	<path id="path116" class="st2" d="M350.9,363.4c5.3,10.6,10.3,21.2,14.8,32.1l8,20.2l1.3,3.4l23.4,11.4H140.9l23.4-11.4l7.2-18.8
		c5-12.5,10.7-24.7,16.8-36.9H350.9z"/>
	<path id="path118" class="st2" d="M367.9,373.7l-6.6,6.9l-2.4-5.1l2.2-2.3l-6.2-6l-1.9-3.9h4.2L367.9,373.7z"/>
	<path id="path120" class="st5" d="M344.6,370.3c6.9,15.3,12.7,31.1,16.2,47.8c0,0.5-0.2,1-0.6,1.2c-21.6-4.5-43.9-7.2-66.7-8.8
		l-22.9-1c-31.4,0.8-62.1,3.7-91.5,9.8c-0.3,0-0.6-0.3-0.7-0.6c2.6-13,6.7-25.5,11.6-37.5l4.8-11.2l0.4-0.3l149,0.1L344.6,370.3z"/>
	<path id="path122" class="st2" d="M358.2,373.7l-0.8-1.6l1.2,1.2L358.2,373.7z"/>
	<path id="path124" class="st2" d="M158.7,400.9c1.4,0.6,2.9,1,3.9,2.4l0.3,14.1l-0.3,0.3l-6.7,3.2l-2.4-3.5
		c-4.9-0.3-10.4,1.6-15-0.4c-3.4-3-3.4-7.5-3.9-11.7c0-3.2,0.4-6.7,3.7-8.3c1.3-0.8,2.9-0.1,4.3,0
		C148.1,398.2,153.6,399.2,158.7,400.9L158.7,400.9z"/>
	<path id="path126" class="st2" d="M403.5,399.5c1.9,4.1,0.8,9.3-0.2,13.5c-0.5,1.8-1.6,3.8-3.4,4.4c-4.6,1.4-9.5-0.2-14.3,0.1
		l-2.3,3.5c-2.4-0.9-4.7-2.2-7-3.4l-0.1-0.6l0.3-13.7c0.4-0.8,1.4-1.3,2.1-1.7c6.4-2.6,13.4-3.6,20.2-4.9
		C400.9,396.6,402.5,398,403.5,399.5L403.5,399.5z"/>
	<path id="path128" class="st2" d="M401.7,432.3c8.6,10.7,15,25.4,8.8,39.1c-3.7,8.4-12.4,15-20.2,18.7l-0.4,0.5l-0.2,5.1H149.5
		l-0.3-5.2l-0.6-0.5c-10-4.6-20.5-14.3-22-25.5c-1.8-12.5,3.7-22.9,10.9-32.2H401.7z"/>
	<path id="path130" class="st0" d="M359.9,440.8H180.9v-3.6h179.1L359.9,440.8z"/>
	<path id="path132" class="st0" d="M182.6,448.6c3.1,5.7,2.4,14-1.5,19.2c-4.4,5.9-11,8.6-18.2,7.5c-6.7-0.8-13.4-7-14.9-13.6
		c-1.7-6.9,0.4-13.8,5.6-18.5c4.9-4.5,12.4-6.1,18.8-3.7C176.5,440.8,180.6,444.5,182.6,448.6z"/>
	<path id="path134" class="st0" d="M393,448.5c3.1,5.9,2.5,14.4-1.7,19.6c-4.4,5.7-10.8,8.3-17.9,7.2c-6.5-0.8-13-6.6-14.7-13
		c-2.3-7.9,0.5-16,7.3-20.7c5.3-4,14.3-4.3,19.9-0.6C388.9,442.6,391.6,445.5,393,448.5L393,448.5z"/>
	<path id="path136" class="st2" d="M181.3,450c2.8,6,1.6,13.8-3.2,18.5c-4.1,4.2-9.6,6.1-15.6,4.7c-5.2-0.9-10.4-5.6-12.1-10.6
		c-2.3-6.2-0.6-13.3,4-17.8c4.5-4.5,11.5-6.1,17.5-3.8C175.7,442.5,179.6,446.2,181.3,450z"/>
	<path id="path138" class="st2" d="M391.2,448.7c3.2,5.3,2.6,13.5-1.3,18.3c-4.3,5.4-10.9,7.9-17.6,6.2c-5.2-1.2-10.3-6.2-11.7-11.3
		c-1.9-6.3-0.2-12.8,4.6-17.3c4.4-4.2,11.2-5.8,17.1-3.5C385.7,442.4,389.3,445.3,391.2,448.7L391.2,448.7z"/>
	<path id="path140" class="st0" d="M351.8,450.9H189v-3.6h162.7V450.9z"/>
	<path id="path142" class="st0" d="M349.5,459.6H191.3V456h158.1V459.6z"/>
	<path id="path144" class="st0" d="M350.8,468.8H190v-3.6h160.8V468.8z"/>
	<path id="path146" class="st0" d="M359,479.7H181.8v-3.6H359V479.7z"/>
	<path id="path148" class="st2" d="M389.6,497.6c-1.6,6-3.6,12.5-9.7,16c-1.5,0.9-3,1.7-4.7,2.1l-211.5-0.1
		c-5.1-1.4-10.1-6.1-11.8-11.1c-0.9-2.3-1.7-4.6-2.2-6.9L389.6,497.6z"/>
	<path id="path150" class="st2" d="M206.7,538.3c-0.5,3-2.8,6.1-5.7,7.3c-2.4,1.4-5.6,0.8-8.4,0.9l-18.9-0.1
		c-3.1-0.4-6.3-2.6-7.6-5.7c-0.6-1.5-0.9-3-0.8-4.8v-18.4h41.4V538.3z"/>
	<path id="path152" class="st2" d="M220.5,525.5l-4.5,4.7l-7.3-7.1l0.1-5.6h3.6L220.5,525.5z"/>
	<path id="path154" class="st2" d="M221.7,524.1l-6.7-6.6h13L221.7,524.1z"/>
	<path id="path156" class="st2" d="M321.3,524.1l-6.3-6.6h13L321.3,524.1z"/>
	<path id="path158" class="st2" d="M373.8,538.2c-0.4,3.2-2.9,6.5-6.1,7.6l-2.3,0.6h-24.7c-3-0.5-6.2-2.9-7.4-5.9l-0.7-2.5v-20.5
		h41.4L373.8,538.2z"/>
	<path id="path160" class="st2" d="M327,530.2l-4.6-4.7l8.1-7.9v9.1L327,530.2z"/>
	<path id="path162" class="st2" d="M208.6,537.6v-11.8l6,5.7L208.6,537.6z"/>
	<path id="path164" class="st2" d="M328.4,531.4l2.1-2.1v4.4L328.4,531.4z"/>
	<path id="path166" class="st2" d="M361.5,565.7l-16.9-17.3l21.2-0.2c4.2-0.5,8.4-4.1,9.4-8.2c0.8-2.4,0.4-5.3,0.5-8l10,10.2
		L361.5,565.7z"/>
	<path id="path168" class="st2" d="M169.6,547c1.5,0.8,3.1,1.3,4.9,1.4h23.8l-15.7,16.1l-0.1,0.1l-24-23.4l-0.2-0.1l5.1-5.2
		C163.3,540.5,165.6,544.8,169.6,547L169.6,547z"/>
	<path id="path170" class="st2" d="M168.6,578.7l-24.1-23.4l-0.1-0.1l12.6-12.9l24.1,23.5L168.6,578.7z M167.4,572.3l-16.6-16v-0.1
		l6.7-7l16.6,16.1L167.4,572.3z"/>
	<path id="path172" class="st2" d="M375.4,580.1l-12.6-13l24.2-23.5l12.5,13L375.4,580.1z"/>
	<path id="path174" class="st0" d="M376.5,573.6l-6.7-7l16.6-16l6.7,6.9L376.5,573.6z"/>
	<path id="path176" class="st2" d="M171.6,565.3l-4.2,4.4c-4.7-4.4-9.3-9.1-14-13.5l4.3-4.4C162.3,556.3,167,560.8,171.6,565.3
		L171.6,565.3z"/>
	<path id="path178" class="st2" d="M376.6,571l-4.3-4.3l13.9-13.6l4.3,4.4L376.6,571z"/>
	<path id="path180" class="st2" d="M161.6,586.1c-2-0.7-4.6-0.4-6.4,0.7c-2.3,1.5-3.2,4-2.9,6.7c-6.1,2.5-13.2,0.9-17.8-3.6
		c0-0.1,0.1-0.1,0.2-0.2l-0.3,0.1c-4.7-4.5-6.3-11.4-4.1-17.6c2.9,0.2,5.8-1.2,7-3.9c0.8-1.7,0.8-4.1,0.1-5.8l5.8-5.9l24.2,23.4
		L161.6,586.1z"/>
	<path id="path182" class="st2" d="M405.5,562.7c-1,2.6-0.5,5.9,1.7,7.8c1.5,1.5,3.4,2,5.6,1.9c2.2,6.3,0.5,13.4-4.4,17.9
		c-4.5,4.4-11.6,5.8-17.5,3.5c0.1-2.4-0.6-4.7-2.5-6.4c-1.8-1.6-4.6-2-6.9-1.2l-4.7-4.7l24.2-23.6L405.5,562.7z"/>
	<path id="path184" class="st2" d="M135,561.9c1,1.4,1.5,3.6,0.8,5.2c-0.7,1.9-2.6,3.2-4.5,3.2l-2.2-0.2c-3,6.4-1.8,15,3,20.2
		c5,5.4,12.8,7.5,19.9,5.2l2.3-0.9c-0.5-1.7-0.5-4,0.7-5.3c1.4-1.5,3.2-2.1,5.2-1.7c1.9,0.3,3.7,2,4.3,3.9c0.5,1.6,0.3,3.6-0.7,4.8
		c-1.3,1.7-3.2,2.4-5.3,1.9l-0.3,0.1c-6,4.8-15.4,6.2-22.6,3.1c-8.6-3.1-14.8-12.2-14.7-21.4c0-5.2,1.6-9.8,4.5-13.9
		c-0.5-1.8-0.2-3.7,1-5c1.4-1.4,3.2-2,5.1-1.5C133,560.1,134,560.8,135,561.9L135,561.9z"/>
	<path id="path186" class="st2" d="M417,561.9c0.7,1.2,0.8,2.8,0.5,4.2c5.2,6.7,6,18,1.5,25.4c-4.7,8.2-13.3,12.5-22.8,11.5
		c-4.3-0.5-8.2-2.1-11.6-4.7c-1.9,0.5-3.8,0-5.1-1.4c-1.4-1.4-1.7-3.4-1.2-5.2c0.5-1.8,2.2-3.4,3.9-3.9c1.9-0.5,3.9-0.2,5.2,1.2
		c1.6,1.4,1.9,3.7,1.3,5.7c6,3.4,14.9,2.2,20.1-2.3c5.4-4.7,7.8-11.3,6.4-18.4c-0.4-1.3-0.7-2.5-1.3-3.7c-1.9,0.5-4,0.2-5.3-1
		c-1.5-1.4-2.1-3.2-1.6-5.1c0.4-1.9,2.2-3.7,4-4.2C413.3,559.2,415.8,559.8,417,561.9L417,561.9z"/>
	<path id="path188" class="st5" d="M101.2,254.1c0.6,0.7,0.9,1.5,1.2,2.4c1.9-0.2,3.7,0.4,4.7,2.1c0.4,0.7,0.6,1.6,0.6,2.4
		c1.9,0.9,4,1.9,5.7,3.6c1.3,1.3,2.2,2.8,2.6,4.4c3.4,0.3,6.8,2.9,7.6,6.3l0.4,1.2c3.7,0.3,7.6,3,8.6,6.7c4.3,1.4,8.8,4.9,10.4,9.3
		c3.5,0.4,6.5,2.2,8.8,5.1c0.7-9.6,0.3-19.8,8.3-26.4c4.1-3.4,9-6.3,14.6-4.4c2.7,0.7,5,3.6,5.4,6.3c-0.2,1.2,0.9,1.8,1.3,2.7
		c1.2,2.8,0.5,6.3-1.4,8.6c-2.3,2.6-5.6,3.8-8.8,2.9c-1-0.2-2-0.8-2.8-1.5l-1.6,28.4l28,28.7l1.9-1.6l-21.8-23.7l42-1.3l-3.5-36
		l37.9,19.6l18.2-31l18.1,30.9h0.2l37.8-19.5l-3.5,35.9l4.6,0.2l37.3,1.2l-21.7,23.7l4.1,3.2l29.5-30.4l-1.6-28.4
		c-1.9,1.5-4.2,2-6.6,1.6c-3-0.5-6.2-3.4-6.8-6.5c-0.5-2.5,0-5,1.6-6.9c0.1-2.8,1.9-5.7,4.6-6.8c6.3-2.9,12.2,1,16.8,5.2
		c6.7,6.6,6.2,16.1,7,25.1c2.2-2.9,5.3-4.6,8.8-5.2c1.6-4.4,6.2-7.8,10.4-9.2c0.9-3.9,4.9-6.4,8.7-6.7c0.4-3.1,3-6.3,6.2-7l1.8-0.4
		c0.8-3.8,4.8-6.5,8.2-7.8c0.1-2.1,1-3.7,3-4.5c0.6-0.2,1.5-0.2,2.2-0.1c0.5-1.9,2.2-3.8,4.1-4.3c4.9-1,9.3,1.4,12.9,4.6
		c3.7,3.7,6.4,8,5.4,13.2c-0.4,1.7-1.8,3.4-3.5,3.9c0.7,0.9,1,2.1,0.8,3.4c-0.3,1.2-0.9,2.3-2,2.9c-1.3,0.9-3.4,0.9-4.7,0.1
		c-0.1-0.1-0.3-0.1-0.4-0.2c-0.2,3.4-1.6,7-5.1,8.3c-0.8,4.1-4.1,8.3-8.3,9.5c-0.3,3.4-2,6.6-5.1,8.3l-2.2,0.9
		c-1,4.4-4.4,9-8.9,10.7c-0.4,2.5-1.7,4.6-3.8,6.4l0.2,0.1c9.4,0.3,19.3,0.1,25.7,7.6c3.5,4.1,6.6,9.3,4.3,15c-0.9,2.8-4,4.8-6.8,5
		c-2.3,2-5.9,2.3-8.6,1c-2.8-1.3-5-4.3-5.1-7.4c-0.1-1.9,0.4-3.7,1.6-5.1l-0.2-0.1l-27.1-0.6L362,382.4c4.5,10,8.6,20.1,12.5,30.3
		l0.4-10.2c1.4-2.3,4-2.9,6.3-3.8c5.9-1.8,11.8-2.9,18-3.9c2.7,0,5.4,2.3,6.4,4.8c1.6,4.6,0.4,10.1-0.8,14.6c-0.6,1.9-2,4.1-4.1,4.8
		c-4.4,1.5-9.4,0.3-13.9,0.1l-1.8,2.6l18,8.9c8.2,10.6,14.6,23.5,10.6,37.6c-2.6,10.1-12.7,18.8-21.9,23.1l-0.2,4.6
		c0.5,0.9-0.2,1.9-0.3,2.7c-1.6,6.3-4.2,13-10.6,16.7c-1.5,0.7-3.1,1.6-4.8,2.1v11.8l30.7,31.6c1.9-2.5,4.8-3.7,7.9-3
		c1.8,0.4,3.8,1.8,4.6,3.7c0.6,1.3,0.7,2.9,0.6,4.4c5.1,7,5.7,18.3,1.4,25.9c-4.6,8.4-13.2,13.2-22.6,13.1
		c-5.3-0.2-10.1-1.9-14.4-4.8c-2.3,0.3-4.3-0.5-5.9-2.1c-1.6-1.7-2.1-3.9-1.7-6.2c0.4-1.9,1.5-3.7,3.2-4.9l-37.5-38.6
		c-4.5-0.1-9-3-10.7-7.3c-0.5-1.5-0.8-2.9-0.8-4.6l-18.5-19h-81.2l-23.4,24.2c-1,2.2-3.1,4.4-5.3,5.4L163.4,587
		c2.5,1.9,3.8,4.7,3.2,7.8c-0.4,2-1.9,4.1-3.9,4.9c-1.2,0.5-2.5,0.7-4,0.5c-6.7,5.3-17.8,6.4-25.6,2.4c-8.6-4.1-14-13-14-22.3
		c0-5.4,1.5-10.3,4.3-14.5c-0.3-2.4,0.4-4.6,2.1-6.2c2-1.9,5.1-2.3,7.6-1.3c1.3,0.4,2.4,1.5,3.4,2.6l5.3-5.6l-0.1-0.1l15.1-15.6
		c0.1,0,0.1,0.1,0.2,0.1l6.4-6.7v-15.6c-5.7-1.5-11.3-6.5-13.3-12.2c-1-2.8-2-5.8-2.6-8.7c0.4-1.7,0-3.5,0-5.1
		c-10.3-4.8-21.1-14.9-22.7-26.4c-2-13.3,3.9-24.4,11.3-34.3l0.5-0.4l17.6-8.6l-1.8-2.6c-4.9,0.1-10.7,1.7-15.1-0.6
		c-3.7-3-3.8-7.6-4.4-11.9c-0.2-3.7-0.1-7.4,2.8-10.1c1.7-1.4,4-2.1,6.2-1.4c7,1.4,14.3,2.3,20.6,5.6c0.8,0.4,1.7,1.3,1.9,2.2
		c0.1,3.2,0,6.5,0.1,9.7h0.2c4.1-11.1,8.6-22.1,13.5-32.9l-38.9-40l-27.3,0.7c1.4,1.9,1.8,4.4,1.3,6.8c-0.7,3-3.7,5.9-6.8,6.4
		c-1.6,0.3-3.4,0.1-4.7-0.4l-2.3-1.4c-2.3-0.3-4.6-1.6-5.9-3.8c-2.4-4.2-1.3-9.8,1.7-13.4c3.6-5.9,9.6-8.9,16-9.7
		c3.9-0.3,7.9-0.5,11.8-0.7c-2.1-1.8-3.4-4-3.9-6.5c-4.4-1.6-7.8-6.2-8.7-10.6c-3.2-0.9-6.5-4-7.1-7.4l-0.3-1.8
		c-4.1-1.3-7.4-5.4-8.3-9.5c-3.6-1.3-4.8-4.9-5.1-8.3c-1.2,0.9-3,1-4.5,0.5c-1.6-0.7-2.5-2.3-2.6-4c0-1,0.3-1.9,0.8-2.7
		c-2.3-0.9-3.7-3.4-3.7-5.9c0.2-6.5,5.6-12.4,11.3-15C94.1,251.8,98.7,251.3,101.2,254.1L101.2,254.1z"/>
	<path id="path190" class="st4" d="M100.3,256l0.4,1.2l-15.8,15.4c-1-0.2-2-0.8-2.6-1.8c-1.5-3.5,0.2-7,2.1-9.7
		c3.4-4.3,7.9-7.8,13.3-7C98.7,254.3,99.8,254.9,100.3,256L100.3,256z"/>
	<path id="path192" class="st4" d="M460.6,264.9c0.7,1.8,1,4.5-0.2,6.1c-0.5,0.9-1.5,1.3-2.3,1.6l-15.9-15.4c0.3-1.2,1-2.3,2.1-2.8
		c3.8-1.4,7.4,0.5,10.4,2.6C457.4,259.1,459.6,261.8,460.6,264.9z"/>
	<path id="path194" class="st4" d="M105.2,259.2c0.6,0.6,0.8,1.7,0.6,2.5l-0.8,1.2l-16.6,16c-0.8,0.4-1.9,0.3-2.6-0.1
		c-0.9-0.5-1.4-1.4-1.3-2.4c0-0.7,0.3-1.6,1-1.9l6.3-6.3l10.3-9.6C103.2,258.1,104.5,258.4,105.2,259.2z"/>
	<path id="path196" class="st4" d="M441.7,259.2l15.2,14.8c0.3,0.6,1.2,0.8,1.4,1.6c0.3,0.7,0.2,1.8-0.2,2.5
		c-0.5,0.7-1.4,1.2-2.3,1.2l-1.3-0.3l-17-16.5c-0.4-0.7-0.5-1.6-0.3-2.3c0.3-0.9,1.2-1.7,2.1-1.9C440.3,258.2,441,258.5,441.7,259.2
		L441.7,259.2z"/>
	<path id="path198" class="st4" d="M114.4,269.9l-10.9,26.2c-3.4-1-6-4.5-6.7-7.9c0.1-0.1,0.5,0.1,0.7,0.2l9.6-24.7l0.5-0.6
		C110.5,264.1,113.8,266.7,114.4,269.9L114.4,269.9z"/>
	<path id="path200" class="st4" d="M445.3,288.5l0.8-0.3c-0.7,3.4-3.4,6.9-6.7,8.1L428.6,270c0.5-3.2,3.8-5.8,6.6-6.9l0.8,0.9
		L445.3,288.5z"/>
	<path id="path202" class="st4" d="M96.2,286.9c-1.6-0.2-3-1.6-3.7-3c-0.4-1.2-0.7-2.3-0.8-3.5l11.9-13L96.2,286.9z"/>
	<path id="path204" class="st4" d="M451.2,280.4c-0.2,2.2-0.7,4.5-2.8,5.9l-1.6,0.6l-0.1-0.2l-7.4-19.3L451.2,280.4z"/>
	<path id="path206" class="st4" d="M178,272.1c-2.6-1.4-6.3-1-8.6,0.6c-2.5,1.9-3.9,4.5-3.8,7.6c0,1.6,0.6,2.9,1.4,4.2l-0.4,0.4
		l-1.6,27.3l-11.2-11.6l-0.3-0.7c0.7-8.1-0.1-16.9,4.3-23.5c2.6-4.1,6.9-6.9,11.2-8.3C172.6,267.6,176.6,268.5,178,272.1z"/>
	<path id="path208" class="st4" d="M382.9,273.7c6.8,6.8,5.6,17,6.6,26.3l-0.9,1.5l-10.7,10.9l-1.5-27.3l-0.5-0.4
		c1.9-2.4,1.9-6.4,0.3-8.9c-1.7-2.7-4.4-4.3-7.4-4.4c-1.4,0-2.6,0.3-3.8,0.8c0.9-2.8,4-4,6.8-4.1C376.2,268,379.5,270.8,382.9,273.7
		L382.9,273.7z"/>
	<path id="path210" class="st4" d="M121.2,274.3c0.6,1.2,1,2.4,1.3,3.8h0.3l-11.4,27.3c-2.8-0.5-5.6-3.2-6.1-6.1l-0.3-2.4
		c0.4-0.1,0.4-0.8,0.7-1.2l10.3-24.9C118.1,271.2,120.2,272.3,121.2,274.3z"/>
	<path id="path212" class="st4" d="M437.8,296.9h0.2c-0.2,3.1-1.6,6.4-4.6,7.9l-1.8,0.7l-11.4-27.3v-0.1h0.2c0.5-2.4,1.4-5,3.8-6.3
		c0.8-0.4,1.8-0.7,2.7-0.9l0.5,1.2L437.8,296.9z"/>
	<path id="path214" class="st4" d="M323.7,283.5l-3.4,34.6l39.9,1.3l-20.3,22.1l24.7,20l-28.2,0.1l-7.2-21.4c-0.7-0.9-2-0.5-3-0.6
		l4.5-7.6l-24-1l0.9-26.2l-23.6,13.1l-14.5-23.9l-14.5,23.9l-23.6-13.1l0.9,26.2l-24,1l4.5,7.5c-0.8,0.2-2.1,0-2.6,0.8l-0.4,1.6
		l-4.4,19.6l-31,0.1l24.7-20L179,319.5l13.1-0.5l26.7-0.7l0.1-0.1l-3.4-34.6l36.5,18.8l17.6-29.8l17.5,29.8L323.7,283.5z"/>
	<path id="path216" class="st4" d="M179.3,275.8c1.2,1.7,1,4.2,0.2,5.9c-1.2,2.5-3.7,4.2-6.4,4.1c-2.1,0-4-1.2-4.9-2.9
		c-0.9-1.7-0.9-4.2,0-5.9c1.2-2.3,3.5-3.8,6-3.9C176.2,273,178.1,274,179.3,275.8z"/>
	<path id="path218" class="st4" d="M375,277.6c0.8,1.9,0.5,4.4-0.6,5.9c-1.4,1.7-3.2,2.4-5.2,2.3c-2.1-0.2-4-1.3-5.2-3.1
		c-1-1.6-1.5-3.9-0.7-5.9c0.8-2.2,3-3.7,5.4-3.7C371.4,273,374.1,274.9,375,277.6z"/>
	<path id="path220" class="st4" d="M130.2,282.1c0.7,0.8,0.3,2.6,1.8,2.7l-12.4,31.1c-3.7-1.5-6.4-5.3-7.2-9l0.3,0.1l11.9-28.6
		C126.9,278.8,129,280,130.2,282.1L130.2,282.1z"/>
	<path id="path222" class="st4" d="M430.2,307l0.2-0.2c-0.8,3.7-3.5,7.6-7.1,9.1l-12.5-31.1c1.5-0.1,1-1.9,1.9-2.7
		c1.2-2.1,3.4-3.2,5.6-3.7L430.2,307z"/>
	<path id="path224" class="st4" d="M141.2,293L129,323.8l-1.4,1.4c-2.9-1.7-6.2-4.4-6.5-8l12.6-31.6
		C136.8,286.9,140.1,289.7,141.2,293z"/>
	<path id="path226" class="st4" d="M421.8,317.2c-0.2,3.6-3.6,6.4-6.5,8l-1.4-1.6l-12.2-30.7c1.2-3.1,4.3-6,7.4-7.3L421.8,317.2z"/>
	<path id="path228" class="st4" d="M152.1,301.3l-19.9,19.3l10.6-26.5C146.8,294.6,150.4,297.9,152.1,301.3z"/>
	<path id="path230" class="st4" d="M390.8,301.3c1.8-3.6,5.3-6.8,9.3-7.2l10.6,26.5L390.8,301.3z"/>
	<path id="path232" class="st0" d="M305.8,307.8l-0.9,24.8l22.7,0.9l-3.6,6H215.2l-3.6-6l22.6-0.9h0.1l-0.8-24.8l22.2,12.4
		l13.8-22.7l13.8,22.7L305.8,307.8z"/>
	<path id="path234" class="st4" d="M141.5,339.3c-4.1-4.3-8.3-8.6-12.5-12.9l24.2-23.5l12.5,12.8L141.5,339.3z"/>
	<path id="path236" class="st4" d="M401.4,339.3l-24.1-23.4l-0.1-0.1l12.5-12.9l24.2,23.5L401.4,339.3z"/>
	<path id="path238" class="st5" d="M142.7,332.7l-0.1,0.1l-6.8-7l16.6-16l6.8,6.9L142.7,332.7z"/>
	<path id="path240" class="st5" d="M407.1,325.8c-2.1,2.3-4.4,4.7-6.7,7l-16.7-16.1l6.8-6.9L407.1,325.8z"/>
	<path id="path242" class="st4" d="M142.7,330.2c-1.5-1.3-2.8-2.8-4.3-4.3l13.9-13.6l4.3,4.4L142.7,330.2z"/>
	<path id="path244" class="st4" d="M400.3,330.2l-13.9-13.5l4.2-4.4l14,13.5L400.3,330.2z"/>
	<path id="path246" class="st4" d="M397,343.8l-24.2-23.5l3.1-3.2l24.2,23.5L397,343.8z"/>
	<path id="path248" class="st4" d="M146,343.8l-3.1-3.2l24.2-23.5l3.1,3.2L146,343.8z"/>
	<path id="path250" class="st4" d="M159.8,358l-12.6-12.9l24.2-23.5l12.6,12.9L159.8,358z"/>
	<path id="path252" class="st4" d="M383.2,358l-24.1-23.4l-0.1-0.1l12.5-12.9l24.2,23.5L383.2,358z"/>
	<path id="path254" class="st4" d="M127.3,327.3l10.4,10.7l-26.4,0.6l-0.4,0.6c-2.3-2-6.2-2.2-8.7-0.7c-2.8,1.5-4.8,4.3-4.8,7.4
		c-0.1,1.4,0.2,2.6,0.7,3.8c-2.9-1.2-4-4.3-4-7.2c0.5-4.7,3.7-8.4,7.2-11.6c6.3-5.1,15.1-4.2,23.3-4.8
		C125.8,325.8,126.5,326.6,127.3,327.3L127.3,327.3z"/>
	<path id="path256" class="st4" d="M444.3,333.5c3.2,3.7,6.1,8.8,3.6,13.6c-0.7,1.2-1.8,2.1-2.9,2.6c1.3-2.7,0.7-6.8-1.4-9.1
		c-2.3-2.4-5.4-3.7-8.7-2.8c-0.9,0.3-1.9,0.7-2.7,1.5l-0.4-0.5l-26.5-0.7l11.1-11.3l0.9-0.6C427,326.7,437.7,325.3,444.3,333.5
		L444.3,333.5z"/>
	<path id="path258" class="st5" d="M160.9,351.6l-6.8-7l16.6-16.1l6.8,7L160.9,351.6z"/>
	<path id="path260" class="st5" d="M388.7,344.6l-6.7,7l-16.5-16l-0.1-0.1l6.7-7l16.6,16L388.7,344.6z"/>
	<path id="path262" class="st4" d="M160.9,349l-4.2-4.4l13.9-13.5l4.2,4.3L160.9,349z"/>
	<path id="path264" class="st4" d="M386.2,344.6l-4.3,4.4c-4.6-4.5-9.3-9-13.9-13.5l4.2-4.4C376.9,335.5,381.5,340.1,386.2,344.6z"
		/>
	<path id="path266" class="st4" d="M189.2,347.3l-4.6-4.6l-16.7,16l3,3.2l-1.7,1.4h3l2.5,2.5l2.6-2.5h5.3l-9.1,9
		c-4.2-4.4-8.4-8.7-12.6-13l24.2-23.5l7.9,8.2L189.2,347.3z"/>
	<path id="path268" class="st4" d="M369.3,372.4l-9.1-9h5.4l2.5,2.5l6.8-7l-16.6-16.1l-6.2,6.4l-4.1-3.4l9.5-9.8l24.2,23.5
		L369.3,372.4z"/>
	<path id="path270" class="st4" d="M110.7,341.7c1.3,1.6,1.6,4,0.7,5.9c-0.9,2.6-3.7,4.5-6.4,4.5c-2.1,0-4-0.8-5-2.7
		c-1-1.6-1-4-0.3-5.7c1.2-2.4,3.6-4.2,6.2-4.3C107.7,339.4,109.5,340.1,110.7,341.7L110.7,341.7z"/>
	<path id="path272" class="st4" d="M442.5,342.3c1.3,1.7,1.8,4.2,0.9,6.2c-0.6,1.8-2.6,3.2-4.4,3.6c-2.3,0.2-4.4-0.4-6-2.1
		c-1.4-1.5-2.1-3.2-2-5.3c0.2-1.8,1.3-3.6,3-4.5C436.9,338.6,440.6,339.7,442.5,342.3L442.5,342.3z"/>
	<path id="path274" class="st2" d="M239,360.6h-29.4l3.9-17.4H239V360.6z"/>
	<path id="path276" class="st2" d="M267.9,360.6h-25.1v-17.4H268L267.9,360.6z"/>
	<path id="path278" class="st2" d="M297,360.6h-25.3v-17.4H297V360.6z"/>
	<path id="path280" class="st2" d="M332.3,360.6h-31.5v-17.4h25.8L332.3,360.6z"/>
	<path id="path282" class="st4" d="M172.5,360.9l-1.9-2l13.9-13.5l3.1,3.1L172.5,360.9z"/>
	<path id="path284" class="st4" d="M368.9,362.4h-0.2c-4.9-4.1-10.1-7.9-14.6-12.7l4.2-4.4l13.9,13.5L368.9,362.4z"/>
	<path id="path286" class="st4" d="M179.2,378l-4.2-4.2l10.7-10.5h0.5L179.2,378z"/>
	<path id="path288" class="st2" d="M350.9,363.4c5.3,10.6,10.3,21.2,14.8,32.1l8,20.2l1.3,3.4l23.4,11.4H140.9l23.4-11.4l7.2-18.8
		c5-12.5,10.7-24.7,16.8-36.9H350.9z"/>
	<path id="path290" class="st4" d="M367.9,373.7l-6.6,6.9l-2.4-5.1l2.2-2.3l-6.2-6l-1.9-3.9h4.2L367.9,373.7z"/>
	<path id="path292" class="st5" d="M344.6,370.3c6.9,15.3,12.7,31.1,16.2,47.8c0,0.5-0.2,1-0.6,1.2c-21.6-4.5-43.9-7.2-66.7-8.8
		l-22.9-1c-31.4,0.8-62.1,3.7-91.5,9.8c-0.3,0-0.6-0.3-0.7-0.6c2.6-13,6.7-25.5,11.6-37.5l4.8-11.2l0.4-0.3l149,0.1L344.6,370.3z"/>
	<path id="path294" class="st4" d="M358.2,373.7l-0.8-1.6l1.2,1.2L358.2,373.7z"/>
	<path id="path296" class="st2" d="M158.7,400.9c1.4,0.6,2.9,1,3.9,2.4l0.3,14.1l-0.3,0.3l-6.7,3.2l-2.4-3.5
		c-4.9-0.3-10.4,1.6-15-0.4c-3.4-3-3.4-7.5-3.9-11.7c0-3.2,0.4-6.7,3.7-8.3c1.3-0.8,2.9-0.1,4.3,0
		C148.1,398.2,153.6,399.2,158.7,400.9L158.7,400.9z"/>
	<path id="path298" class="st2" d="M403.5,399.5c1.9,4.1,0.8,9.3-0.2,13.5c-0.5,1.8-1.6,3.8-3.4,4.4c-4.6,1.4-9.5-0.2-14.3,0.1
		l-2.3,3.5c-2.4-0.9-4.7-2.2-7-3.4l-0.1-0.6l0.3-13.7c0.4-0.8,1.4-1.3,2.1-1.7c6.4-2.6,13.4-3.6,20.2-4.9
		C400.9,396.6,402.5,398,403.5,399.5L403.5,399.5z"/>
	<path id="path300" class="st2" d="M401.7,432.3c8.6,10.7,15,25.4,8.8,39.1c-3.7,8.4-12.4,15-20.2,18.7l-0.4,0.5l-0.2,5.1H149.5
		l-0.3-5.2l-0.6-0.5c-10-4.6-20.5-14.3-22-25.5c-1.8-12.5,3.7-22.9,10.9-32.2H401.7z"/>
	<path id="path302" class="st0" d="M182.6,448.6c3.1,5.7,2.4,14-1.5,19.2c-4.4,5.9-11,8.6-18.2,7.5c-6.7-0.8-13.4-7-14.9-13.6
		c-1.7-6.9,0.4-13.8,5.6-18.5c4.9-4.5,12.4-6.1,18.8-3.7C176.5,440.8,180.6,444.5,182.6,448.6z"/>
	<path id="path304" class="st0" d="M393,448.5c3.1,5.9,2.5,14.4-1.7,19.6c-4.4,5.7-10.8,8.3-17.9,7.2c-6.5-0.8-13-6.6-14.7-13
		c-2.3-7.9,0.5-16,7.3-20.7c5.3-4,14.3-4.3,19.9-0.6C388.9,442.6,391.6,445.5,393,448.5L393,448.5z"/>
	<path id="path306" class="st4" d="M181.3,450c2.8,6,1.6,13.8-3.2,18.5c-4.1,4.2-9.6,6.1-15.6,4.7c-5.2-0.9-10.4-5.6-12.1-10.6
		c-2.3-6.2-0.6-13.3,4-17.8c4.5-4.5,11.5-6.1,17.5-3.8C175.7,442.5,179.6,446.2,181.3,450z"/>
	<path id="path308" class="st4" d="M391.2,448.7c3.2,5.3,2.6,13.5-1.3,18.3c-4.3,5.4-10.9,7.9-17.6,6.2c-5.2-1.2-10.3-6.2-11.7-11.3
		c-1.9-6.3-0.2-12.8,4.6-17.3c4.4-4.2,11.2-5.8,17.1-3.5C385.7,442.4,389.3,445.3,391.2,448.7L391.2,448.7z"/>
	<path id="path310" class="st0" d="M359,479.7H181.8v-3.6H359V479.7z M350.8,468.8H190v-3.6h160.8L350.8,468.8z M349.5,459.6H191.3
		V456h158.1V459.6z M351.8,450.9H189v-3.6h162.7V450.9z M359.9,440.8H180.9v-3.6h179.1V440.8z"/>
	<path id="path312" class="st2" d="M389.6,497.6c-1.6,6-3.6,12.5-9.7,16c-1.5,0.9-3,1.7-4.7,2.1l-211.5-0.1
		c-5.1-1.4-10.1-6.1-11.8-11.1c-0.9-2.3-1.7-4.6-2.2-6.9L389.6,497.6z"/>
	<path id="path314" class="st2" d="M206.7,538.3c-0.5,3-2.8,6.1-5.7,7.3c-2.4,1.4-5.6,0.8-8.4,0.9l-18.9-0.1
		c-3.1-0.4-6.3-2.6-7.6-5.7c-0.6-1.5-0.9-3-0.8-4.8v-18.4h41.4V538.3z"/>
	<path id="path316" class="st4" d="M220.5,525.5l-4.5,4.7l-7.3-7.1l0.1-5.6h3.6L220.5,525.5z"/>
	<path id="path318" class="st4" d="M221.7,524.1l-6.7-6.6h13L221.7,524.1z"/>
	<path id="path320" class="st4" d="M321.3,524.1l-6.3-6.6h13L321.3,524.1z"/>
	<path id="path322" class="st2" d="M373.8,538.2c-0.4,3.2-2.9,6.5-6.1,7.6l-2.3,0.6h-24.7c-3-0.5-6.2-2.9-7.4-5.9l-0.7-2.5v-20.5
		h41.4L373.8,538.2z"/>
	<path id="path324" class="st4" d="M327,530.2l-4.6-4.7l8.1-7.9v9.1L327,530.2z"/>
	<path id="path326" class="st4" d="M208.6,537.6v-11.8l6,5.7L208.6,537.6z"/>
	<path id="path328" class="st4" d="M328.4,531.4l2.1-2.1v4.4L328.4,531.4z"/>
	<path id="path330" class="st4" d="M361.5,565.7l-16.9-17.3l21.2-0.2c4.2-0.5,8.4-4.1,9.4-8.2c0.8-2.4,0.4-5.3,0.5-8l10,10.2
		L361.5,565.7z"/>
	<path id="path332" class="st4" d="M169.6,547c1.5,0.8,3.1,1.3,4.9,1.4h23.8l-15.7,16.1l-0.1,0.1l-24-23.4l-0.2-0.1l5.1-5.2
		C163.3,540.5,165.6,544.8,169.6,547L169.6,547z"/>
	<path id="path334" class="st4" d="M168.6,578.7l-24.1-23.4l-0.1-0.1l12.6-12.9l24.1,23.5L168.6,578.7z"/>
	<path id="path336" class="st4" d="M375.4,580.1l-12.6-13l24.2-23.5l12.5,13L375.4,580.1z"/>
	<path id="path338" class="st0" d="M167.4,572.3l-16.6-16v-0.1l6.7-7l16.6,16.1L167.4,572.3z"/>
	<path id="path340" class="st0" d="M376.5,573.6l-6.7-7l16.6-16l6.7,6.9L376.5,573.6z"/>
	<path id="path342" class="st4" d="M171.6,565.3l-4.2,4.4c-4.7-4.4-9.3-9.1-14-13.5l4.3-4.4C162.3,556.3,167,560.8,171.6,565.3
		L171.6,565.3z"/>
	<path id="path344" class="st4" d="M376.6,571l-4.3-4.3l13.9-13.6l4.3,4.4L376.6,571z"/>
	<path id="path346" class="st4" d="M161.6,586.1c-2-0.7-4.6-0.4-6.4,0.7c-2.3,1.5-3.2,4-2.9,6.7c-6.1,2.5-13.2,0.9-17.8-3.6
		c0-0.1,0.1-0.1,0.2-0.2l-0.3,0.1c-4.7-4.5-6.3-11.4-4.1-17.6c2.9,0.2,5.8-1.2,7-3.9c0.8-1.7,0.8-4.1,0.1-5.8l5.8-5.9l24.2,23.4
		L161.6,586.1z"/>
	<path id="path348" class="st4" d="M405.5,562.7c-1,2.6-0.5,5.9,1.7,7.8c1.5,1.5,3.4,2,5.6,1.9c2.2,6.3,0.5,13.4-4.4,17.9
		c-4.5,4.4-11.6,5.8-17.5,3.5c0.1-2.4-0.6-4.7-2.5-6.4c-1.8-1.6-4.6-2-6.9-1.2l-4.7-4.7l24.2-23.6L405.5,562.7z"/>
	<path id="path350" class="st4" d="M135,561.9c1,1.4,1.5,3.6,0.8,5.2c-0.7,1.9-2.6,3.2-4.5,3.2l-2.2-0.2c-3,6.4-1.8,15,3,20.2
		c5,5.4,12.8,7.5,19.9,5.2l2.3-0.9c-0.5-1.7-0.5-4,0.7-5.3c1.4-1.5,3.2-2.1,5.2-1.7c1.9,0.3,3.7,2,4.3,3.9c0.5,1.6,0.3,3.6-0.7,4.8
		c-1.3,1.7-3.2,2.4-5.3,1.9l-0.3,0.1c-6,4.8-15.4,6.2-22.6,3.1c-8.6-3.1-14.8-12.2-14.7-21.4c0-5.2,1.6-9.8,4.5-13.9
		c-0.5-1.8-0.2-3.7,1-5c1.4-1.4,3.2-2,5.1-1.5C133,560.1,134,560.8,135,561.9L135,561.9z"/>
	<path id="path352" class="st4" d="M417,561.9c0.7,1.2,0.8,2.8,0.5,4.2c5.2,6.7,6,18,1.5,25.4c-4.7,8.2-13.3,12.5-22.8,11.5
		c-4.3-0.5-8.2-2.1-11.6-4.7c-1.9,0.5-3.8,0-5.1-1.4c-1.4-1.4-1.7-3.4-1.2-5.2c0.5-1.8,2.2-3.4,3.9-3.9c1.9-0.5,3.9-0.2,5.2,1.2
		c1.6,1.4,1.9,3.7,1.3,5.7c6,3.4,14.9,2.2,20.1-2.3c5.4-4.7,7.8-11.3,6.4-18.4c-0.4-1.3-0.7-2.5-1.3-3.7c-1.9,0.5-4,0.2-5.3-1
		c-1.5-1.4-2.1-3.2-1.6-5.1c0.4-1.9,2.2-3.7,4-4.2C413.3,559.2,415.8,559.8,417,561.9L417,561.9z"/>
	<path id="path354" class="st2" d="M462.6,96.5c-5-1.7-13.1-3.1-13.1-9.8c0-1.6,0.9-4.1,1.9-4.5c1.9-0.9,9.5,2.8,11.7,3.5
		L462.6,96.5z M476.7,135l0.4-54.3l-23.4-10.1c-3.8-1.7-13.2-2.8-16.5,0.9c-3.4,3.8-2.3,11.1-0.5,15.3c2,4.8,5.6,7.5,9.8,10.5
		c-5.1-0.5-9.8,2.6-10.4,7.8l-1,9.4l14.4,6.7l1.1-10.7l0.7-2.8c1.9-3,9-0.2,11.5,1l-0.5,19.6L476.7,135z M421.9,59.2v50.9l-14.2-4.1
		V78.1l-18.3,22.7l-14.2-4.1V45.8l14.2,4.1V78l18.4-22.9L421.9,59.2z M363.8,103.3l-12.3-2.4l-0.2-9L310.2,86V35.1l15.5,2.2v38.4
		l17.1,2.4V39.7l15.5,2.2v39.2l5.4,0.8V103.3z M294.9,33.9v50.9l-14.8-0.3V56.6l-19.1,27.6L246.2,84V33.1l14.8,0.3v28.2l19.2-27.8
		L294.9,33.9z M230.6,85.9L215,88.1V49.7l-12.2,1.7v15.7c0,6.4-0.3,11.2-1,14.3c-0.7,3.1-2.3,5.6-4.7,7.3c-2.5,1.8-6.5,3-12,3.8
		c-1.7,0.2-3.6,0.3-5.8,0.3V82.5l2.3-0.3c2.1-0.3,3.6-1,4.5-2c0.9-1.1,1.3-2.8,1.3-5.3V41.1l43.3-6.1L230.6,85.9z M136.1,80
		c0,5.1,0.9,8.6,2.7,10.2c1.8,1.7,4.3,2,7.5,1.1c3.2-1,5.7-2.9,7.5-5.6c1.8-2.7,2.7-7,2.7-12.7c0-4.8-0.9-8-2.8-9.7
		c-1.8-1.6-4.4-2-7.5-1c-3,0.9-5.5,2.8-7.3,5.6C137,70.8,136.1,74.8,136.1,80L136.1,80z M121.1,84.5c0-8.3,2.2-15.5,6.6-21.4
		c4.4-6,10.6-10.2,18.5-12.6c8.1-2.5,14.3-2.1,18.7,1.1c4.4,3.2,6.6,8.9,6.6,17.1c0,5.9-1,11.1-2.9,15.5c-1.9,4.4-4.7,8.2-8.3,11.4
		c-3.6,3.2-8.1,5.7-13.5,7.3c-5.5,1.7-10,2.2-13.6,1.4c-3.6-0.7-6.5-2.7-8.7-6C122.2,95.1,121.1,90.5,121.1,84.5z M108.6,114.4
		L94.4,121V82.6l-15.7,7.3v38.4L64.5,135V84.1l44.1-20.6L108.6,114.4z"/>
</g>
</svg>
